<mxfile host="app.diagrams.net" modified="2020-09-30T13:18:07.091Z" agent="5.0 (Macintosh; Intel Mac OS X 10_15_6) AppleWebKit/605.1.15 (KHTML, like Gecko) Version/13.1.2 Safari/605.1.15" etag="PGD8U3IR51kSyoxiBLzq" version="13.7.6" type="github">
  <diagram id="uAyTFrRv0wsXBhNRBFVU" name="Page-1">
    <mxGraphModel dx="1186" dy="812" grid="0" gridSize="10" guides="1" tooltips="1" connect="1" arrows="1" fold="1" page="1" pageScale="1" pageWidth="827" pageHeight="1169" math="0" shadow="0">
      <root>
        <mxCell id="0" />
        <mxCell id="1" parent="0" />
        <mxCell id="g_buWK4p_RU5fMB4auUN-34" value="" style="rounded=1;whiteSpace=wrap;html=1;fillColor=none;strokeWidth=2;strokeColor=#FF8000;" vertex="1" parent="1">
          <mxGeometry x="95" y="667" width="638" height="139" as="geometry" />
        </mxCell>
        <mxCell id="g_buWK4p_RU5fMB4auUN-22" value="" style="rounded=1;whiteSpace=wrap;html=1;strokeColor=#82b366;fillColor=none;strokeWidth=2;" vertex="1" parent="1">
          <mxGeometry x="95" y="994" width="638" height="89" as="geometry" />
        </mxCell>
        <mxCell id="g_buWK4p_RU5fMB4auUN-23" value="&lt;font color=&quot;#009900&quot;&gt;UITableViewController&lt;/font&gt;" style="rounded=1;arcSize=10;whiteSpace=wrap;html=1;align=center;strokeWidth=1;strokeColor=#82b366;fillColor=none;" vertex="1" parent="1">
          <mxGeometry x="308" y="1022" width="126" height="40" as="geometry" />
        </mxCell>
        <mxCell id="g_buWK4p_RU5fMB4auUN-24" value="UIKit" style="text;strokeColor=none;fillColor=none;spacingLeft=4;spacingRight=4;overflow=hidden;rotatable=0;points=[[0,0.5],[1,0.5]];portConstraint=eastwest;fontSize=12;fontColor=#009900;" vertex="1" parent="1">
          <mxGeometry x="113" y="1010" width="40" height="30" as="geometry" />
        </mxCell>
        <mxCell id="g_buWK4p_RU5fMB4auUN-25" value="&lt;font color=&quot;#009900&quot;&gt;UITableView&lt;/font&gt;" style="rounded=1;arcSize=10;whiteSpace=wrap;html=1;align=center;strokeWidth=1;strokeColor=#82b366;fillColor=none;" vertex="1" parent="1">
          <mxGeometry x="453" y="1022" width="77" height="40" as="geometry" />
        </mxCell>
        <mxCell id="g_buWK4p_RU5fMB4auUN-26" value="&lt;font color=&quot;#009900&quot;&gt;UITableViewCell&lt;/font&gt;" style="rounded=1;arcSize=10;whiteSpace=wrap;html=1;align=center;strokeWidth=1;strokeColor=#82b366;fillColor=none;" vertex="1" parent="1">
          <mxGeometry x="546" y="1022" width="94" height="40" as="geometry" />
        </mxCell>
        <mxCell id="g_buWK4p_RU5fMB4auUN-27" value="&lt;font color=&quot;#009900&quot;&gt;UIImage&lt;/font&gt;" style="rounded=1;arcSize=10;whiteSpace=wrap;html=1;align=center;strokeWidth=1;strokeColor=#82b366;fillColor=none;" vertex="1" parent="1">
          <mxGeometry x="659" y="1022" width="62" height="40" as="geometry" />
        </mxCell>
        <mxCell id="g_buWK4p_RU5fMB4auUN-28" value="" style="rounded=1;whiteSpace=wrap;html=1;fillColor=none;strokeWidth=2;strokeColor=#B5739D;" vertex="1" parent="1">
          <mxGeometry x="95" y="834" width="638" height="139" as="geometry" />
        </mxCell>
        <mxCell id="g_buWK4p_RU5fMB4auUN-29" value="UI Moule" style="text;strokeColor=none;fillColor=none;spacingLeft=4;spacingRight=4;overflow=hidden;rotatable=0;points=[[0,0.5],[1,0.5]];portConstraint=eastwest;fontSize=12;fontColor=#B5739D;" vertex="1" parent="1">
          <mxGeometry x="642" y="843" width="62" height="30" as="geometry" />
        </mxCell>
        <mxCell id="g_buWK4p_RU5fMB4auUN-55" style="edgeStyle=orthogonalEdgeStyle;rounded=0;orthogonalLoop=1;jettySize=auto;html=1;endArrow=blockThin;endFill=1;fontSize=11;fontColor=#007FFF;strokeColor=#B5739D;" edge="1" parent="1" source="g_buWK4p_RU5fMB4auUN-30" target="g_buWK4p_RU5fMB4auUN-31">
          <mxGeometry relative="1" as="geometry" />
        </mxCell>
        <mxCell id="g_buWK4p_RU5fMB4auUN-56" style="edgeStyle=orthogonalEdgeStyle;rounded=0;orthogonalLoop=1;jettySize=auto;html=1;endArrow=blockThin;endFill=1;strokeColor=#B5739D;fontSize=11;fontColor=#007FFF;" edge="1" parent="1" source="g_buWK4p_RU5fMB4auUN-30" target="g_buWK4p_RU5fMB4auUN-36">
          <mxGeometry relative="1" as="geometry" />
        </mxCell>
        <mxCell id="g_buWK4p_RU5fMB4auUN-57" style="edgeStyle=orthogonalEdgeStyle;rounded=0;orthogonalLoop=1;jettySize=auto;html=1;endArrow=block;endFill=0;strokeColor=#B5739D;fontSize=11;fontColor=#007FFF;" edge="1" parent="1" source="g_buWK4p_RU5fMB4auUN-30" target="g_buWK4p_RU5fMB4auUN-23">
          <mxGeometry relative="1" as="geometry" />
        </mxCell>
        <mxCell id="g_buWK4p_RU5fMB4auUN-61" style="edgeStyle=orthogonalEdgeStyle;rounded=0;orthogonalLoop=1;jettySize=auto;html=1;entryX=0;entryY=0.25;entryDx=0;entryDy=0;endArrow=blockThin;endFill=1;strokeColor=#B5739D;fontSize=11;fontColor=#007FFF;" edge="1" parent="1" source="g_buWK4p_RU5fMB4auUN-30" target="g_buWK4p_RU5fMB4auUN-25">
          <mxGeometry relative="1" as="geometry" />
        </mxCell>
        <mxCell id="g_buWK4p_RU5fMB4auUN-64" style="edgeStyle=orthogonalEdgeStyle;rounded=0;orthogonalLoop=1;jettySize=auto;html=1;entryX=0.422;entryY=1;entryDx=0;entryDy=0;entryPerimeter=0;endArrow=blockThin;endFill=1;strokeColor=#B5739D;fontSize=11;fontColor=#007FFF;" edge="1" parent="1" source="g_buWK4p_RU5fMB4auUN-30" target="g_buWK4p_RU5fMB4auUN-32">
          <mxGeometry relative="1" as="geometry" />
        </mxCell>
        <mxCell id="g_buWK4p_RU5fMB4auUN-72" style="edgeStyle=orthogonalEdgeStyle;rounded=0;orthogonalLoop=1;jettySize=auto;html=1;entryX=0.69;entryY=1.111;entryDx=0;entryDy=0;entryPerimeter=0;endArrow=blockThin;endFill=1;strokeColor=#007FFF;fontSize=11;fontColor=#007FFF;" edge="1" parent="1" source="g_buWK4p_RU5fMB4auUN-30" target="g_buWK4p_RU5fMB4auUN-50">
          <mxGeometry relative="1" as="geometry" />
        </mxCell>
        <mxCell id="g_buWK4p_RU5fMB4auUN-30" value="CakeListViewController" style="rounded=1;whiteSpace=wrap;html=1;strokeColor=#B5739D;strokeWidth=1;fillColor=none;fontColor=#B5739D;" vertex="1" parent="1">
          <mxGeometry x="221" y="904" width="138" height="45" as="geometry" />
        </mxCell>
        <mxCell id="g_buWK4p_RU5fMB4auUN-62" style="edgeStyle=orthogonalEdgeStyle;rounded=0;orthogonalLoop=1;jettySize=auto;html=1;endArrow=blockThin;endFill=1;strokeColor=#B5739D;fontSize=11;fontColor=#007FFF;" edge="1" parent="1" source="g_buWK4p_RU5fMB4auUN-31" target="g_buWK4p_RU5fMB4auUN-26">
          <mxGeometry relative="1" as="geometry" />
        </mxCell>
        <mxCell id="g_buWK4p_RU5fMB4auUN-65" style="edgeStyle=orthogonalEdgeStyle;rounded=0;orthogonalLoop=1;jettySize=auto;html=1;entryX=0.075;entryY=1.133;entryDx=0;entryDy=0;entryPerimeter=0;endArrow=block;endFill=0;strokeColor=#B5739D;fontSize=11;fontColor=#007FFF;" edge="1" parent="1" source="g_buWK4p_RU5fMB4auUN-31" target="g_buWK4p_RU5fMB4auUN-41">
          <mxGeometry relative="1" as="geometry" />
        </mxCell>
        <mxCell id="g_buWK4p_RU5fMB4auUN-31" value="CakeCell" style="rounded=1;whiteSpace=wrap;html=1;strokeColor=#B5739D;strokeWidth=1;fillColor=none;fontColor=#B5739D;" vertex="1" parent="1">
          <mxGeometry x="434" y="904" width="116" height="45" as="geometry" />
        </mxCell>
        <mxCell id="g_buWK4p_RU5fMB4auUN-66" style="edgeStyle=orthogonalEdgeStyle;rounded=0;orthogonalLoop=1;jettySize=auto;html=1;entryX=0.25;entryY=1;entryDx=0;entryDy=0;endArrow=block;endFill=0;fontSize=11;fontColor=#007FFF;strokeColor=#FF8000;" edge="1" parent="1" source="g_buWK4p_RU5fMB4auUN-32" target="g_buWK4p_RU5fMB4auUN-39">
          <mxGeometry relative="1" as="geometry" />
        </mxCell>
        <mxCell id="g_buWK4p_RU5fMB4auUN-81" style="edgeStyle=orthogonalEdgeStyle;rounded=0;orthogonalLoop=1;jettySize=auto;html=1;entryX=1;entryY=0.5;entryDx=0;entryDy=0;endArrow=blockThin;endFill=1;strokeColor=#B5739D;fontSize=9;fontColor=#B5739D;" edge="1" parent="1" source="g_buWK4p_RU5fMB4auUN-32" target="g_buWK4p_RU5fMB4auUN-43">
          <mxGeometry relative="1" as="geometry">
            <Array as="points">
              <mxPoint x="244" y="580" />
              <mxPoint x="440" y="580" />
              <mxPoint x="440" y="343" />
              <mxPoint x="420" y="343" />
              <mxPoint x="420" y="319" />
            </Array>
          </mxGeometry>
        </mxCell>
        <mxCell id="g_buWK4p_RU5fMB4auUN-32" value="&lt;font color=&quot;#ff8000&quot;&gt;CakeViewModel&lt;/font&gt;" style="rounded=1;whiteSpace=wrap;html=1;strokeWidth=1;fillColor=none;fontColor=#B5739D;strokeColor=#FF8000;" vertex="1" parent="1">
          <mxGeometry x="186" y="714" width="116" height="45" as="geometry" />
        </mxCell>
        <mxCell id="g_buWK4p_RU5fMB4auUN-74" style="edgeStyle=orthogonalEdgeStyle;rounded=0;orthogonalLoop=1;jettySize=auto;html=1;entryX=0;entryY=0.75;entryDx=0;entryDy=0;endArrow=blockThin;endFill=1;fontSize=11;dashed=1;dashPattern=1 1;curved=1;fontColor=#B5739D;strokeColor=#B5739D;" edge="1" parent="1" source="g_buWK4p_RU5fMB4auUN-33" target="g_buWK4p_RU5fMB4auUN-30">
          <mxGeometry relative="1" as="geometry" />
        </mxCell>
        <mxCell id="g_buWK4p_RU5fMB4auUN-76" style="edgeStyle=orthogonalEdgeStyle;curved=1;rounded=0;orthogonalLoop=1;jettySize=auto;html=1;entryX=0;entryY=0.5;entryDx=0;entryDy=0;dashed=1;dashPattern=1 1;endArrow=blockThin;endFill=1;strokeColor=#B5739D;fontSize=9;fontColor=#B5739D;" edge="1" parent="1" source="g_buWK4p_RU5fMB4auUN-33" target="g_buWK4p_RU5fMB4auUN-32">
          <mxGeometry relative="1" as="geometry" />
        </mxCell>
        <mxCell id="g_buWK4p_RU5fMB4auUN-78" style="edgeStyle=orthogonalEdgeStyle;curved=1;rounded=0;orthogonalLoop=1;jettySize=auto;html=1;entryX=0;entryY=0.75;entryDx=0;entryDy=0;dashed=1;dashPattern=1 1;endArrow=blockThin;endFill=1;strokeColor=#B5739D;fontSize=9;fontColor=#B5739D;" edge="1" parent="1" source="g_buWK4p_RU5fMB4auUN-33" target="g_buWK4p_RU5fMB4auUN-39">
          <mxGeometry relative="1" as="geometry" />
        </mxCell>
        <mxCell id="g_buWK4p_RU5fMB4auUN-80" style="edgeStyle=orthogonalEdgeStyle;curved=1;rounded=0;orthogonalLoop=1;jettySize=auto;html=1;entryX=0;entryY=0.5;entryDx=0;entryDy=0;dashed=1;dashPattern=1 1;endArrow=blockThin;endFill=1;strokeColor=#B5739D;fontSize=9;fontColor=#B5739D;" edge="1" parent="1" source="g_buWK4p_RU5fMB4auUN-33" target="g_buWK4p_RU5fMB4auUN-41">
          <mxGeometry relative="1" as="geometry" />
        </mxCell>
        <mxCell id="g_buWK4p_RU5fMB4auUN-33" value="CakeListUIComposer" style="rounded=1;whiteSpace=wrap;html=1;strokeColor=#B5739D;strokeWidth=1;fillColor=none;fontColor=#B5739D;" vertex="1" parent="1">
          <mxGeometry x="106" y="843" width="132" height="45" as="geometry" />
        </mxCell>
        <mxCell id="g_buWK4p_RU5fMB4auUN-35" value="Presentation Moule" style="text;strokeColor=none;fillColor=none;spacingLeft=4;spacingRight=4;overflow=hidden;rotatable=0;points=[[0,0.5],[1,0.5]];portConstraint=eastwest;fontSize=12;fontColor=#FF8000;" vertex="1" parent="1">
          <mxGeometry x="610" y="674" width="114" height="30" as="geometry" />
        </mxCell>
        <mxCell id="g_buWK4p_RU5fMB4auUN-36" value="&lt;font color=&quot;#009900&quot;&gt;UIAlertController&lt;/font&gt;" style="rounded=1;arcSize=10;whiteSpace=wrap;html=1;align=center;strokeWidth=1;strokeColor=#82b366;fillColor=none;" vertex="1" parent="1">
          <mxGeometry x="174" y="1022" width="114" height="40" as="geometry" />
        </mxCell>
        <mxCell id="g_buWK4p_RU5fMB4auUN-37" value="" style="rounded=1;whiteSpace=wrap;html=1;strokeWidth=2;fillColor=none;fontColor=#FF8000;strokeColor=#CC0000;" vertex="1" parent="1">
          <mxGeometry x="451" y="471" width="276" height="180" as="geometry" />
        </mxCell>
        <mxCell id="g_buWK4p_RU5fMB4auUN-38" value="Cake Module" style="text;strokeColor=none;fillColor=none;spacingLeft=4;spacingRight=4;overflow=hidden;rotatable=0;points=[[0,0.5],[1,0.5]];portConstraint=eastwest;fontSize=12;fontColor=#CC0000;" vertex="1" parent="1">
          <mxGeometry x="637" y="471" width="82" height="30" as="geometry" />
        </mxCell>
        <mxCell id="g_buWK4p_RU5fMB4auUN-67" style="edgeStyle=orthogonalEdgeStyle;rounded=0;orthogonalLoop=1;jettySize=auto;html=1;entryX=0;entryY=0.5;entryDx=0;entryDy=0;endArrow=blockThin;endFill=1;fontSize=11;fontColor=#007FFF;strokeColor=#990000;" edge="1" parent="1" source="g_buWK4p_RU5fMB4auUN-39" target="g_buWK4p_RU5fMB4auUN-40">
          <mxGeometry relative="1" as="geometry" />
        </mxCell>
        <mxCell id="g_buWK4p_RU5fMB4auUN-39" value="&lt;font color=&quot;#990000&quot;&gt;&amp;lt;Cake Loader&amp;gt;&lt;/font&gt;" style="rounded=1;whiteSpace=wrap;html=1;strokeWidth=1;fillColor=none;fontColor=#B5739D;strokeColor=#990000;" vertex="1" parent="1">
          <mxGeometry x="459" y="587" width="97" height="45" as="geometry" />
        </mxCell>
        <mxCell id="g_buWK4p_RU5fMB4auUN-40" value="&lt;font color=&quot;#990000&quot;&gt;Cake List&lt;/font&gt;" style="rounded=1;whiteSpace=wrap;html=1;strokeWidth=1;fillColor=none;fontColor=#B5739D;strokeColor=#990000;" vertex="1" parent="1">
          <mxGeometry x="597" y="587" width="116" height="45" as="geometry" />
        </mxCell>
        <mxCell id="g_buWK4p_RU5fMB4auUN-41" value="&lt;font color=&quot;#990000&quot;&gt;&amp;lt;Cake Image Loader&amp;gt;&lt;/font&gt;" style="rounded=1;whiteSpace=wrap;html=1;strokeWidth=1;fillColor=none;fontColor=#B5739D;strokeColor=#990000;" vertex="1" parent="1">
          <mxGeometry x="455" y="508" width="134" height="45" as="geometry" />
        </mxCell>
        <mxCell id="g_buWK4p_RU5fMB4auUN-42" value="" style="rounded=1;whiteSpace=wrap;html=1;strokeWidth=2;fillColor=none;fontColor=#FF8000;strokeColor=#007FFF;" vertex="1" parent="1">
          <mxGeometry x="106" y="292" width="314" height="154" as="geometry" />
        </mxCell>
        <mxCell id="g_buWK4p_RU5fMB4auUN-69" style="edgeStyle=orthogonalEdgeStyle;rounded=0;orthogonalLoop=1;jettySize=auto;html=1;entryX=0.5;entryY=0;entryDx=0;entryDy=0;endArrow=blockThin;endFill=1;fontSize=11;fontColor=#007FFF;strokeColor=#007FFF;" edge="1" parent="1" source="g_buWK4p_RU5fMB4auUN-43" target="g_buWK4p_RU5fMB4auUN-45">
          <mxGeometry relative="1" as="geometry" />
        </mxCell>
        <mxCell id="g_buWK4p_RU5fMB4auUN-70" style="edgeStyle=orthogonalEdgeStyle;rounded=0;orthogonalLoop=1;jettySize=auto;html=1;entryX=0;entryY=0.5;entryDx=0;entryDy=0;endArrow=classicThin;endFill=0;strokeColor=#007FFF;fontSize=11;fontColor=#007FFF;dashed=1;" edge="1" parent="1" source="g_buWK4p_RU5fMB4auUN-43" target="g_buWK4p_RU5fMB4auUN-39">
          <mxGeometry relative="1" as="geometry">
            <Array as="points">
              <mxPoint x="433" y="319" />
              <mxPoint x="433" y="610" />
            </Array>
          </mxGeometry>
        </mxCell>
        <mxCell id="g_buWK4p_RU5fMB4auUN-43" value="&lt;font color=&quot;#007fff&quot;&gt;Remote Cake Loader&lt;/font&gt;" style="rounded=1;whiteSpace=wrap;html=1;strokeWidth=1;fillColor=none;fontColor=#B5739D;strokeColor=#007FFF;" vertex="1" parent="1">
          <mxGeometry x="273" y="296" width="134" height="45" as="geometry" />
        </mxCell>
        <mxCell id="g_buWK4p_RU5fMB4auUN-45" value="&lt;font color=&quot;#007fff&quot;&gt;&amp;lt;HTTP Client&amp;gt;&lt;/font&gt;" style="rounded=1;whiteSpace=wrap;html=1;strokeWidth=1;fillColor=none;fontColor=#B5739D;strokeColor=#007FFF;" vertex="1" parent="1">
          <mxGeometry x="273" y="379" width="134" height="45" as="geometry" />
        </mxCell>
        <mxCell id="g_buWK4p_RU5fMB4auUN-68" style="edgeStyle=orthogonalEdgeStyle;rounded=0;orthogonalLoop=1;jettySize=auto;html=1;entryX=0;entryY=0.5;entryDx=0;entryDy=0;endArrow=blockThin;endFill=1;fontSize=11;fontColor=#007FFF;strokeColor=#007FFF;" edge="1" parent="1" source="g_buWK4p_RU5fMB4auUN-46" target="g_buWK4p_RU5fMB4auUN-45">
          <mxGeometry relative="1" as="geometry" />
        </mxCell>
        <mxCell id="g_buWK4p_RU5fMB4auUN-46" value="&lt;font color=&quot;#007fff&quot;&gt;AF HTTP Client&lt;/font&gt;" style="rounded=1;whiteSpace=wrap;html=1;strokeWidth=1;fillColor=none;fontColor=#B5739D;strokeColor=#007FFF;" vertex="1" parent="1">
          <mxGeometry x="123" y="379" width="106" height="45" as="geometry" />
        </mxCell>
        <mxCell id="g_buWK4p_RU5fMB4auUN-47" value="Backend" style="ellipse;shape=cloud;whiteSpace=wrap;html=1;align=center;strokeColor=#007FFF;strokeWidth=2;fillColor=none;fontColor=#CC0000;" vertex="1" parent="1">
          <mxGeometry x="123" y="219" width="100" height="60" as="geometry" />
        </mxCell>
        <mxCell id="g_buWK4p_RU5fMB4auUN-48" value="Alamofire" style="text;strokeColor=none;fillColor=none;spacingLeft=4;spacingRight=4;overflow=hidden;rotatable=0;points=[[0,0.5],[1,0.5]];portConstraint=eastwest;fontSize=11;fontColor=#007FFF;" vertex="1" parent="1">
          <mxGeometry x="123" y="375" width="61" height="30" as="geometry" />
        </mxCell>
        <mxCell id="g_buWK4p_RU5fMB4auUN-49" value="" style="rounded=1;whiteSpace=wrap;html=1;strokeWidth=2;fillColor=none;fontColor=#FF8000;strokeColor=#007FFF;" vertex="1" parent="1">
          <mxGeometry x="103" y="469" width="314" height="154" as="geometry" />
        </mxCell>
        <mxCell id="g_buWK4p_RU5fMB4auUN-71" style="edgeStyle=orthogonalEdgeStyle;rounded=0;orthogonalLoop=1;jettySize=auto;html=1;entryX=0.004;entryY=0.333;entryDx=0;entryDy=0;entryPerimeter=0;dashed=1;endArrow=classicThin;endFill=0;strokeColor=#007FFF;fontSize=11;fontColor=#007FFF;" edge="1" parent="1" source="g_buWK4p_RU5fMB4auUN-50" target="g_buWK4p_RU5fMB4auUN-37">
          <mxGeometry relative="1" as="geometry" />
        </mxCell>
        <mxCell id="g_buWK4p_RU5fMB4auUN-73" style="edgeStyle=orthogonalEdgeStyle;rounded=0;orthogonalLoop=1;jettySize=auto;html=1;entryX=1;entryY=0.75;entryDx=0;entryDy=0;endArrow=blockThin;endFill=1;strokeColor=#007FFF;fontSize=11;fontColor=#007FFF;" edge="1" parent="1" source="g_buWK4p_RU5fMB4auUN-50" target="g_buWK4p_RU5fMB4auUN-27">
          <mxGeometry relative="1" as="geometry" />
        </mxCell>
        <mxCell id="g_buWK4p_RU5fMB4auUN-50" value="&lt;font color=&quot;#007fff&quot;&gt;Remote Cake Image Loader&lt;/font&gt;" style="rounded=1;whiteSpace=wrap;html=1;strokeWidth=1;fillColor=none;fontColor=#B5739D;strokeColor=#007FFF;" vertex="1" parent="1">
          <mxGeometry x="174" y="518" width="171" height="45" as="geometry" />
        </mxCell>
        <mxCell id="g_buWK4p_RU5fMB4auUN-51" value="Cake API Module" style="text;strokeColor=none;fillColor=none;spacingLeft=4;spacingRight=4;overflow=hidden;rotatable=0;points=[[0,0.5],[1,0.5]];portConstraint=eastwest;fontSize=12;fontColor=#007FFF;" vertex="1" parent="1">
          <mxGeometry x="115" y="292" width="110" height="30" as="geometry" />
        </mxCell>
        <mxCell id="g_buWK4p_RU5fMB4auUN-52" value="Cake Image Feature Module" style="text;strokeColor=none;fillColor=none;spacingLeft=4;spacingRight=4;overflow=hidden;rotatable=0;points=[[0,0.5],[1,0.5]];portConstraint=eastwest;fontSize=12;fontColor=#007FFF;" vertex="1" parent="1">
          <mxGeometry x="106" y="469" width="172" height="30" as="geometry" />
        </mxCell>
        <mxCell id="g_buWK4p_RU5fMB4auUN-75" value="&lt;Creates&gt;" style="text;strokeColor=none;fillColor=none;spacingLeft=4;spacingRight=4;overflow=hidden;rotatable=0;points=[[0,0.5],[1,0.5]];portConstraint=eastwest;fontSize=9;fontColor=#B5739D;" vertex="1" parent="1">
          <mxGeometry x="135" y="916" width="62" height="30" as="geometry" />
        </mxCell>
        <mxCell id="g_buWK4p_RU5fMB4auUN-77" value="&lt;Creates&gt;" style="text;strokeColor=none;fillColor=none;spacingLeft=4;spacingRight=4;overflow=hidden;rotatable=0;points=[[0,0.5],[1,0.5]];portConstraint=eastwest;fontSize=9;fontColor=#B5739D;" vertex="1" parent="1">
          <mxGeometry x="112" y="757" width="62" height="30" as="geometry" />
        </mxCell>
        <mxCell id="g_buWK4p_RU5fMB4auUN-79" value="&lt;Creates&gt;" style="text;strokeColor=none;fillColor=none;spacingLeft=4;spacingRight=4;overflow=hidden;rotatable=0;points=[[0,0.5],[1,0.5]];portConstraint=eastwest;fontSize=9;fontColor=#B5739D;" vertex="1" parent="1">
          <mxGeometry x="358" y="678" width="62" height="30" as="geometry" />
        </mxCell>
      </root>
    </mxGraphModel>
  </diagram>
</mxfile>
